<?xml version="1.0" standalone="no"?>
<!DOCTYPE svg PUBLIC "-//W3C//DTD SVG 20010904//EN"
 "http://www.w3.org/TR/2001/REC-SVG-20010904/DTD/svg10.dtd">
<svg version="1.0" xmlns="http://www.w3.org/2000/svg"
 width="242.000000pt" height="197.000000pt" viewBox="0 0 242.000000 197.000000"
 preserveAspectRatio="xMidYMid meet">

<g transform="translate(0.000000,197.000000) scale(0.100000,-0.100000)"
fill="#000000" stroke="none">
<path d="M1500 1883 c0 -20 3 -33 7 -29 11 10 12 66 2 66 -5 0 -9 -16 -9 -37z"/>
<path d="M1572 1805 c0 -16 2 -22 5 -12 2 9 2 23 0 30 -3 6 -5 -1 -5 -18z"/>
<path d="M1590 1640 c0 -5 5 -10 10 -10 6 0 10 5 10 10 0 6 -4 10 -10 10 -5 0
-10 -4 -10 -10z"/>
<path d="M1170 1609 c0 -5 5 -7 10 -4 6 3 10 8 10 11 0 2 -4 4 -10 4 -5 0 -10
-5 -10 -11z"/>
<path d="M1442 1585 c0 -16 2 -22 5 -12 2 9 2 23 0 30 -3 6 -5 -1 -5 -18z"/>
<path d="M1600 1600 c0 -5 5 -10 10 -10 6 0 10 5 10 10 0 6 -4 10 -10 10 -5 0
-10 -4 -10 -10z"/>
<path d="M1276 1567 c3 -10 9 -15 12 -12 3 3 0 11 -7 18 -10 9 -11 8 -5 -6z"/>
<path d="M1245 1559 c-4 -6 -5 -12 -2 -15 2 -3 7 2 10 11 7 17 1 20 -8 4z"/>
<path d="M1310 1544 c0 -11 -6 -15 -20 -11 -11 3 -20 1 -20 -4 0 -5 -45 -9
-100 -9 l-100 0 0 -125 0 -125 118 -1 c64 -1 150 -1 191 0 51 1 77 -2 82 -11
7 -10 9 -10 9 0 0 8 20 12 64 12 61 0 65 -1 74 -27 l10 -28 1 28 c1 26 2 27
61 27 47 0 60 -3 60 -15 0 -18 17 -20 22 -3 8 22 57 -23 69 -62 15 -50 2 -89
-41 -117 -30 -21 -44 -23 -181 -23 l-148 0 -4 48 -3 47 -2 -47 -2 -48 -153 0
c-106 0 -157 -4 -165 -12 -9 -9 -12 -9 -12 0 0 7 -11 12 -25 12 -28 0 -27 8
-25 -133 1 -61 -3 -97 -8 -93 -6 3 -12 -1 -16 -9 -3 -8 -15 -15 -26 -15 -16 0
-20 6 -20 36 0 20 -4 33 -10 29 -5 -3 -8 -19 -6 -35 3 -30 3 -30 -44 -30 -32
0 -48 -4 -47 -12 0 -7 -1 -26 -1 -42 -2 -28 -2 -28 -28 -11 -19 12 -29 13 -39
5 -14 -12 -25 6 -25 41 0 17 -8 19 -95 19 l-95 0 0 360 0 360 -115 0 -115 0 0
-74 c0 -41 4 -86 10 -100 5 -14 11 -88 14 -165 4 -114 2 -143 -10 -155 -7 -8
-14 -23 -13 -33 0 -16 1 -16 10 2 6 13 8 -53 5 -187 -3 -115 -3 -208 0 -208 2
0 9 12 15 27 6 17 13 23 20 16 6 -6 6 -19 0 -34 -11 -31 3 -59 28 -59 19 0 37
42 26 60 -4 6 -1 10 4 10 6 0 11 -7 11 -16 0 -8 5 -12 11 -9 6 4 8 13 5 21 -3
7 -1 16 4 19 10 6 15 -29 10 -69 -2 -24 22 -16 35 12 5 12 13 22 17 22 5 0 8
9 8 20 0 11 5 20 11 20 6 0 9 -9 6 -20 -3 -11 0 -30 6 -43 10 -22 17 -24 118
-26 101 -2 107 -1 112 20 3 12 10 18 17 14 6 -4 9 -13 6 -21 -4 -11 11 -13 79
-11 75 2 85 0 85 -15 0 -9 4 -19 8 -22 5 -3 10 -33 11 -68 2 -64 16 -97 34
-79 10 10 20 94 18 153 0 18 5 28 14 28 12 0 15 -14 15 -62 0 -39 4 -58 9 -49
5 7 6 29 4 47 -3 25 3 47 23 82 l28 47 9 -55 c9 -49 11 -52 20 -32 16 34 34
27 29 -12 -4 -38 13 -58 23 -26 3 11 11 20 17 20 5 0 8 -6 5 -13 -3 -8 -1 -20
4 -28 6 -10 9 -5 9 18 0 17 4 34 9 37 4 3 4 31 -1 63 -5 32 -7 68 -5 81 2 12
0 22 -5 22 -5 0 -8 42 -6 94 3 103 16 127 53 100 10 -8 15 -14 11 -14 -5 0 -3
-6 3 -14 8 -10 9 -16 1 -21 -5 -3 -10 -11 -10 -17 0 -10 36 -7 70 7 12 4 16
-2 18 -25 1 -18 -2 -29 -7 -26 -5 3 -11 -5 -13 -19 -6 -28 8 -35 15 -7 4 13 5
11 6 -6 0 -12 -5 -32 -11 -43 -10 -17 -10 -23 0 -26 16 -6 15 -45 -3 -112 -10
-40 -11 -59 -3 -68 6 -7 8 -24 6 -38 -3 -14 -1 -25 3 -25 5 0 9 8 9 18 0 9 3
51 7 92 3 41 7 113 8 160 1 47 3 91 3 98 2 11 21 13 85 11 78 -3 82 -3 85 19
2 12 10 22 17 22 8 0 16 4 19 9 4 5 -3 7 -14 4 -11 -3 -20 0 -20 6 0 13 39 14
60 1 12 -8 12 -15 -7 -53 -20 -41 -20 -45 -4 -73 9 -16 19 -30 23 -32 4 -2 21
-25 38 -52 26 -41 31 -58 28 -96 -2 -35 1 -49 12 -52 12 -4 13 -2 4 9 -6 8 -7
27 -4 44 6 24 8 27 14 13 10 -21 28 -14 19 7 -3 9 1 15 11 15 10 0 16 -9 16
-25 0 -25 0 -25 96 -25 l97 0 -7 33 c-4 17 -9 42 -10 54 -4 31 -25 53 -50 53
-16 0 -18 2 -7 9 12 8 5 24 -37 88 l-51 78 36 17 c53 26 90 65 118 125 22 46
25 66 26 167 0 96 -3 121 -21 159 -26 56 -95 121 -154 146 -48 21 -161 41
-229 41 -40 0 -45 2 -40 20 6 21 -1 23 -32 10 -17 -7 -17 -9 -2 -9 9 -1 17 -5
17 -11 0 -15 -147 -13 -153 3 -4 10 -6 10 -6 0 -1 -20 -111 -18 -111 1 0 8 -4
18 -10 21 -5 3 -10 -1 -10 -11z m-113 -582 c9 -34 7 -41 -12 -60 l-23 -22 -8
38 c-11 52 -11 57 4 55 6 -2 12 4 12 12 0 30 18 14 27 -23z m643 23 c-10 -12
-9 -15 5 -15 12 0 15 -5 10 -17 -4 -10 -8 -24 -8 -30 0 -7 -4 -13 -9 -13 -4 0
-5 -26 -2 -57 7 -51 5 -56 -10 -50 -10 4 -20 7 -22 7 -2 0 -4 6 -4 13 0 6 -7
25 -15 40 -13 25 -13 31 1 52 9 13 13 29 9 34 -10 17 14 51 37 51 17 0 18 -2
8 -15z m-720 -77 c0 -16 -5 -28 -11 -28 -5 0 -8 4 -4 9 3 5 1 12 -3 15 -5 3
-7 17 -4 32 6 32 22 12 22 -28z m160 38 c0 -3 -4 -8 -10 -11 -5 -3 -10 -1 -10
4 0 6 5 11 10 11 6 0 10 -2 10 -4z m650 -6 c0 -5 -5 -10 -11 -10 -5 0 -7 5 -4
10 3 6 8 10 11 10 2 0 4 -4 4 -10z m-740 -122 c0 -16 -3 -19 -11 -11 -6 6 -8
16 -5 22 11 17 16 13 16 -11z m-640 -18 c0 -5 -4 -10 -10 -10 -5 0 -10 5 -10
10 0 6 5 10 10 10 6 0 10 -4 10 -10z m-80 -10 c0 -5 -4 -10 -10 -10 -5 0 -10
5 -10 10 0 6 5 10 10 10 6 0 10 -4 10 -10z m730 -20 c0 -5 -2 -10 -4 -10 -3 0
-8 5 -11 10 -3 6 -1 10 4 10 6 0 11 -4 11 -10z m600 -20 c0 -11 -4 -20 -9 -20
-5 0 -7 9 -4 20 3 11 7 20 9 20 2 0 4 -9 4 -20z m60 6 c0 -3 -4 -8 -10 -11 -5
-3 -10 -1 -10 4 0 6 5 11 10 11 6 0 10 -2 10 -4z m-1260 -26 c0 -5 -7 -10 -16
-10 -8 0 -12 5 -9 10 3 6 10 10 16 10 5 0 9 -4 9 -10z m427 -27 c-3 -10 -5 -4
-5 12 0 17 2 24 5 18 2 -7 2 -21 0 -30z m903 25 c0 -4 -4 -8 -10 -8 -11 0 -25
-46 -22 -75 4 -32 -24 23 -31 62 -6 32 -6 32 28 31 19 -1 35 -5 35 -10z
m-1400 -18 c0 -5 -9 -10 -21 -10 -11 0 -17 5 -14 10 3 6 13 10 21 10 8 0 14
-4 14 -10z m727 4 c-3 -3 -12 -4 -19 -1 -8 3 -5 6 6 6 11 1 17 -2 13 -5z
m-572 -14 c3 -5 2 -10 -4 -10 -5 0 -13 5 -16 10 -3 6 -2 10 4 10 5 0 13 -4 16
-10z m135 -11 c0 -6 -4 -7 -10 -4 -5 3 -10 11 -10 16 0 6 5 7 10 4 6 -3 10
-11 10 -16z m166 5 c-3 -9 -6 -22 -6 -30 0 -8 -4 -14 -10 -14 -5 0 -8 13 -7
30 1 18 8 30 16 30 8 0 11 -6 7 -16z m-86 -70 c0 -21 -4 -33 -10 -29 -5 3 -10
22 -10 41 0 21 4 33 10 29 6 -3 10 -22 10 -41z m1070 11 c0 -5 -5 -3 -10 5 -5
8 -10 20 -10 25 0 6 5 3 10 -5 5 -8 10 -19 10 -25z m-1148 -40 l-6 -30 -6 30
c-4 17 -4 36 -2 44 9 25 21 -12 14 -44z m-82 25 c0 -5 -7 -7 -15 -4 -8 4 -15
8 -15 10 0 2 7 4 15 4 8 0 15 -4 15 -10z m1163 -35 c-3 -8 -11 -15 -19 -15
-17 0 -18 7 -1 24 15 17 28 11 20 -9z m64 5 c1 -11 0 -20 -2 -20 -2 0 -9 9
-15 20 -8 15 -8 20 3 20 7 0 13 -9 14 -20z"/>
<path d="M881 1474 c0 -11 3 -14 6 -6 3 7 2 16 -1 19 -3 4 -6 -2 -5 -13z"/>
<path d="M1442 1238 c5 -15 28 -23 28 -10 0 5 -7 13 -16 16 -10 4 -14 1 -12
-6z"/>
<path d="M1611 1134 c0 -11 3 -14 6 -6 3 7 2 16 -1 19 -3 4 -6 -2 -5 -13z"/>
<path d="M1100 1101 c0 -19 4 -30 10 -26 10 6 8 40 -3 51 -4 4 -7 -7 -7 -25z"/>
<path d="M1395 1110 c-3 -6 1 -7 9 -4 18 7 21 14 7 14 -6 0 -13 -4 -16 -10z"/>
<path d="M790 1100 c0 -5 5 -10 11 -10 5 0 7 5 4 10 -3 6 -8 10 -11 10 -2 0
-4 -4 -4 -10z"/>
<path d="M806 985 c4 -8 8 -15 10 -15 2 0 4 7 4 15 0 8 -4 15 -10 15 -5 0 -7
-7 -4 -15z"/>
<path d="M812 929 c5 -16 7 -36 4 -44 -3 -10 1 -15 13 -15 11 0 17 6 15 18 -5
35 -16 61 -29 66 -11 4 -11 -1 -3 -25z"/>
<path d="M834 823 c2 -13 0 -26 -5 -29 -5 -3 -9 -11 -9 -19 0 -11 6 -12 30 -4
31 11 41 29 17 29 -8 0 -19 10 -26 23 l-12 22 5 -22z"/>
<path d="M1609 788 c-6 -20 -5 -38 2 -49 6 -10 9 -4 9 19 0 17 -2 32 -5 32 -3
0 -5 -1 -6 -2z"/>
<path d="M1310 726 c0 -8 5 -18 10 -21 6 -3 10 3 10 14 0 12 -4 21 -10 21 -5
0 -10 -6 -10 -14z"/>
<path d="M1380 729 c0 -6 -8 -18 -17 -27 -16 -16 -16 -17 0 -20 9 -2 17 -8 17
-13 0 -5 5 -9 10 -9 6 0 10 18 10 40 0 22 -4 40 -10 40 -5 0 -10 -5 -10 -11z"/>
<path d="M1522 720 c0 -14 2 -19 5 -12 2 6 2 18 0 25 -3 6 -5 1 -5 -13z"/>
<path d="M1602 665 c3 -47 0 -55 -14 -55 -11 0 -18 -8 -18 -20 0 -11 5 -20 10
-20 6 0 10 5 10 10 0 18 20 11 21 -7 0 -10 5 -4 10 12 5 17 6 50 2 75 -4 25
-6 48 -5 53 1 4 -3 7 -9 7 -7 0 -10 -20 -7 -55z"/>
<path d="M1390 621 c0 -12 -5 -21 -11 -21 -8 0 -10 -18 -7 -54 4 -46 2 -53
-11 -48 -9 3 -19 10 -23 16 -4 6 -8 -6 -8 -26 0 -39 16 -60 26 -34 9 23 24 20
24 -4 0 -11 5 -20 10 -20 6 0 15 -12 21 -26 13 -37 19 -27 12 24 -4 30 -10 42
-22 42 -11 0 -12 3 -4 8 9 5 9 20 1 56 -7 34 -7 55 1 72 6 15 7 25 1 29 -6 4
-10 -3 -10 -14z"/>
<path d="M2050 582 c0 -12 7 -25 15 -29 25 -9 27 2 6 28 l-20 24 -1 -23z"/>
<path d="M1715 540 c3 -5 10 -10 16 -10 5 0 9 5 9 10 0 6 -7 10 -16 10 -8 0
-12 -4 -9 -10z"/>
<path d="M1211 474 c0 -11 3 -14 6 -6 3 7 2 16 -1 19 -3 4 -6 -2 -5 -13z"/>
<path d="M1773 464 c-6 -13 -7 -24 -3 -24 9 0 25 39 18 45 -2 2 -8 -7 -15 -21z"/>
<path d="M843 445 c5 -37 16 -41 15 -6 -1 17 -5 31 -10 31 -5 0 -7 -11 -5 -25z"/>
<path d="M1510 460 c0 -5 7 -10 16 -10 8 0 12 5 9 10 -3 6 -10 10 -16 10 -5 0
-9 -4 -9 -10z"/>
<path d="M1211 424 c0 -11 3 -14 6 -6 3 7 2 16 -1 19 -3 4 -6 -2 -5 -13z"/>
<path d="M1130 390 c0 -16 5 -30 10 -30 6 0 10 14 10 30 0 17 -4 30 -10 30 -5
0 -10 -13 -10 -30z"/>
<path d="M1281 374 c0 -11 3 -14 6 -6 3 7 2 16 -1 19 -3 4 -6 -2 -5 -13z"/>
<path d="M1196 347 c-6 -25 8 -37 37 -29 12 3 16 7 9 10 -6 2 -12 10 -12 17 0
23 -28 25 -34 2z"/>
<path d="M1259 290 c-4 -127 -4 -125 17 -125 17 0 19 6 15 54 -2 35 1 56 9 61
10 6 10 11 1 21 -6 8 -18 23 -26 34 -13 18 -15 14 -16 -45z"/>
<path d="M1330 270 c0 -5 5 -10 11 -10 5 0 7 5 4 10 -3 6 -8 10 -11 10 -2 0
-4 -4 -4 -10z"/>
<path d="M1680 260 c0 -5 5 -10 11 -10 5 0 7 5 4 10 -3 6 -8 10 -11 10 -2 0
-4 -4 -4 -10z"/>
<path d="M1338 239 c17 -18 15 -29 -4 -29 -14 0 -14 -3 -4 -15 7 -8 17 -15 22
-15 15 0 4 63 -12 68 -12 4 -13 2 -2 -9z"/>
<path d="M1440 219 c0 -11 4 -18 10 -14 5 3 7 12 3 20 -7 21 -13 19 -13 -6z"/>
<path d="M1483 204 c-8 -18 -9 -32 -3 -44 6 -10 7 -32 4 -49 -6 -30 -7 -30
-23 -10 -16 20 -18 20 -31 3 -13 -16 -13 -17 2 -11 10 3 20 2 23 -3 4 -6 -3
-10 -14 -10 -12 0 -21 -4 -21 -10 0 -5 6 -7 14 -4 8 3 26 -2 40 -11 l26 -17 0
57 c0 31 -5 65 -11 76 -9 18 -7 19 15 13 20 -5 26 -2 26 11 0 14 -3 15 -14 6
-12 -10 -15 -8 -18 8 -3 19 -4 19 -15 -5z"/>
<path d="M1680 219 c0 -5 5 -7 10 -4 6 3 10 8 10 11 0 2 -4 4 -10 4 -5 0 -10
-5 -10 -11z"/>
<path d="M1515 160 c3 -5 10 -10 16 -10 5 0 9 5 9 10 0 6 -7 10 -16 10 -8 0
-12 -4 -9 -10z"/>
<path d="M1220 140 c0 -5 5 -10 10 -10 6 0 10 5 10 10 0 6 -4 10 -10 10 -5 0
-10 -4 -10 -10z"/>
<path d="M1191 114 c1 -21 16 -47 21 -38 4 5 0 18 -8 29 -8 10 -14 15 -13 9z"/>
<path d="M1485 20 c3 -5 8 -10 11 -10 2 0 4 5 4 10 0 6 -5 10 -11 10 -5 0 -7
-4 -4 -10z"/>
</g>
</svg>
